<svg width="100" height="70" viewBox="0 0 100 70" fill="none" xmlns="http://www.w3.org/2000/svg">
<path d="M0.846123 32.913L31.8461 0.913C32.4101 0.329 33.1881 0 34.0001 0H97.0001C98.6571 0 100 1.343 100 3V67C100 68.657 98.6571 70 97.0001 70H34.0001C33.1881 70 32.4101 69.671 31.8451 69.087L0.845123 37.087C-0.281877 35.924 -0.281877 34.076 0.846123 32.913ZM35.2711 64H94.0001V6H35.2711L7.17712 35L35.2711 64Z" fill="black"/>
<path d="M48.3531 12.8628L64.5001 29.2928L80.6471 12.8628L86.3531 18.4708L70.1082 34.9998L86.3531 51.5298L80.6471 57.1378L64.5001 40.7078L48.3531 57.1378L42.6471 51.5298L58.8921 34.9998L42.6471 18.4708L48.3531 12.8628Z" fill="black"/>
</svg>
